<?xml version="1.0" standalone="no"?>
<!DOCTYPE svg PUBLIC "-//W3C//DTD SVG 20010904//EN"
 "http://www.w3.org/TR/2001/REC-SVG-20010904/DTD/svg10.dtd">
<svg version="1.0" xmlns="http://www.w3.org/2000/svg"
 width="1290.000000pt" height="504.000000pt" viewBox="0 0 1290.000000 504.000000"
 preserveAspectRatio="xMidYMid meet">
<metadata>
Created by potrace 1.15, written by Peter Selinger 2001-2017
</metadata>
<g transform="translate(0.000000,504.000000) scale(0.100000,-0.100000)"
fill="#000000" stroke="none">
<path d="M8375 3474 c-265 -23 -439 -106 -501 -239 -18 -38 -24 -68 -24 -123
0 -115 43 -196 141 -261 81 -54 155 -80 458 -161 169 -45 291 -83 339 -106
260 -125 265 -372 10 -489 -98 -45 -180 -59 -343 -58 -186 0 -295 26 -457 106
l-108 54 -25 -27 -25 -26 56 -34 c319 -193 865 -182 1074 23 62 60 84 116 84
207 0 90 -28 154 -96 216 -94 86 -158 113 -488 200 -284 75 -358 101 -430 152
-79 56 -113 109 -118 185 -11 173 151 290 437 316 202 18 421 -36 593 -146 27
-17 28 -17 50 5 l23 23 -30 25 c-42 33 -134 81 -201 104 -106 37 -311 63 -419
54z"/>
<path d="M3590 2725 l0 -725 30 0 30 0 0 350 0 350 455 0 455 0 0 30 0 30
-455 0 -455 0 0 315 0 315 510 0 510 0 0 30 0 30 -540 0 -540 0 0 -725z"/>
<path d="M4830 2725 l0 -725 535 0 535 0 0 30 0 30 -505 0 -505 0 0 695 0 695
-30 0 -30 0 0 -725z"/>
<path d="M6030 3420 c0 -29 2 -30 45 -30 l45 0 0 -665 0 -665 -40 0 c-38 0
-40 -2 -40 -30 l0 -30 115 0 115 0 0 30 c0 28 -2 30 -40 30 l-40 0 0 665 0
665 40 0 c38 0 40 2 40 30 l0 30 -120 0 -120 0 0 -30z"/>
<path d="M6550 2725 l0 -725 30 0 30 0 0 290 0 290 348 0 c282 0 359 3 407 16
124 32 225 115 283 233 36 73 37 78 37 185 0 104 -2 115 -32 178 -40 85 -106
156 -181 196 -110 59 -139 62 -549 62 l-373 0 0 -725z m842 628 c89 -42 151
-101 191 -182 29 -59 32 -74 32 -156 0 -76 -4 -98 -26 -146 -49 -103 -140
-181 -248 -213 -45 -13 -113 -16 -393 -16 l-338 0 0 376 0 375 358 -3 357 -3
67 -32z"/>
<path d="M9300 3420 c0 -28 2 -30 40 -30 l40 0 0 -665 0 -665 -40 0 c-38 0
-40 -2 -40 -30 l0 -30 115 0 115 0 0 30 c0 28 -2 30 -40 30 l-40 0 0 665 0
665 40 0 c38 0 40 2 40 30 l0 30 -115 0 -115 0 0 -30z"/>
<path d="M9810 2726 l0 -726 308 0 c350 0 399 7 527 69 44 21 108 59 143 86
117 89 223 253 257 399 18 77 21 250 5 319 -53 237 -224 436 -450 524 -112 44
-127 46 -462 50 l-328 5 0 -726z m647 649 c200 -38 374 -175 468 -370 54 -112
69 -184 63 -317 -7 -173 -67 -306 -193 -433 -78 -78 -168 -135 -265 -167 -60
-20 -89 -22 -357 -26 l-293 -3 0 665 0 666 249 0 c178 0 272 -4 328 -15z"/>
<path d="M11310 2725 l0 -725 545 0 545 0 0 30 0 30 -515 0 -515 0 0 320 0
320 460 0 460 0 0 30 0 30 -460 0 -460 0 0 315 0 315 515 0 515 0 0 30 0 30
-545 0 -545 0 0 -725z"/>
<path d="M980 3424 c0 -9 15 -41 34 -72 44 -73 169 -288 210 -361 17 -31 41
-71 51 -89 60 -102 255 -438 293 -507 61 -112 63 -113 109 -89 21 10 39 19 41
20 1 1 -13 29 -33 64 -19 34 -35 65 -35 68 0 3 -9 15 -19 26 -11 12 -21 28
-23 36 -2 8 -5 17 -8 20 -3 3 -16 26 -30 53 -13 26 -28 47 -32 47 -3 0 -10 10
-14 22 -3 11 -26 54 -50 93 -24 40 -44 78 -44 84 0 6 -4 11 -8 11 -5 0 -18 19
-31 43 -12 23 -26 49 -31 57 -20 30 -110 186 -136 235 -15 28 -30 52 -35 53
-5 2 -9 11 -9 19 0 8 -12 29 -27 47 l-26 31 58 3 c32 2 62 -1 66 -5 7 -7 123
-211 224 -393 22 -41 48 -86 56 -100 7 -14 15 -26 15 -28 3 -7 74 33 74 41 0
11 -95 185 -197 362 -35 60 -63 113 -63 117 0 5 34 8 75 8 l75 0 0 50 0 50
-265 0 c-236 0 -265 -2 -265 -16z"/>
<path d="M2072 3396 l-2 -43 67 -6 c38 -4 310 -7 607 -7 479 0 537 -2 526 -15
-7 -8 -20 -30 -30 -48 l-17 -32 -352 -3 -351 -2 0 -40 0 -40 325 0 c179 0 325
-3 325 -6 0 -8 -22 -48 -29 -54 -13 -10 -41 -60 -41 -72 0 -16 81 -51 91 -41
10 10 259 441 259 448 0 3 -310 5 -688 5 l-689 0 -1 -44z"/>
<path d="M2781 2478 c-16 -29 -34 -58 -40 -65 -6 -7 -11 -16 -11 -20 0 -4 -21
-39 -45 -78 -24 -38 -56 -92 -70 -120 -14 -27 -29 -57 -35 -65 -18 -28 -127
-215 -151 -260 -13 -25 -30 -51 -36 -58 -7 -7 -13 -19 -13 -27 0 -7 -4 -15 -9
-17 -5 -1 -11 -10 -13 -18 -2 -8 -18 -36 -35 -63 -18 -26 -33 -53 -33 -61 0
-8 -3 -16 -7 -18 -5 -2 -19 -25 -33 -51 -14 -27 -29 -52 -35 -56 -6 -5 -20 12
-36 44 l-25 52 133 233 c100 175 130 236 121 242 -7 5 -25 15 -39 23 l-26 14
-93 -162 c-52 -89 -105 -183 -119 -209 -28 -52 -38 -58 -48 -30 -4 9 -19 35
-34 57 -14 22 -30 50 -33 62 l-7 22 -42 -26 c-23 -15 -44 -28 -46 -30 -2 -1 7
-19 19 -40 75 -127 217 -374 234 -410 12 -23 27 -41 35 -40 7 1 65 92 129 202
63 110 148 259 190 330 41 72 132 229 202 350 70 121 137 237 150 258 12 21
21 39 19 41 -15 11 -78 46 -82 46 -4 0 -20 -24 -36 -52z"/>
<path d="M4569 1830 c-61 -10 -125 -44 -146 -77 -23 -34 -22 -100 1 -135 24
-36 78 -61 214 -98 142 -38 188 -61 209 -104 60 -126 -163 -201 -360 -121 -44
17 -72 24 -78 18 -13 -13 21 -35 87 -59 34 -12 79 -18 149 -18 90 -1 106 2
158 27 63 31 87 64 87 119 0 72 -68 127 -195 157 -187 45 -255 84 -255 146 0
118 237 164 388 74 31 -18 52 -18 52 0 0 17 -99 60 -160 70 -72 12 -85 12
-151 1z"/>
<path d="M8014 1829 c-65 -15 -144 -69 -181 -122 -42 -63 -56 -117 -51 -197 8
-110 68 -199 166 -247 48 -24 69 -28 137 -27 66 0 89 5 130 26 184 96 227 325
90 476 -68 76 -192 114 -291 91z m145 -35 c66 -19 136 -81 167 -149 85 -181
-63 -398 -261 -383 -98 8 -176 61 -221 150 -77 152 -3 324 163 384 50 18 88
17 152 -2z"/>
<path d="M3610 1531 l0 -291 129 0 c158 0 212 15 282 78 75 67 94 110 94 212
0 96 -22 154 -79 209 -68 65 -106 76 -273 79 l-153 3 0 -290z m322 240 c100
-48 168 -167 154 -269 -8 -59 -52 -137 -97 -173 -59 -47 -108 -59 -235 -59
l-114 0 0 266 0 266 123 -4 c101 -3 130 -8 169 -27z"/>
<path d="M4210 1810 c0 -5 9 -10 20 -10 19 0 20 -7 20 -265 0 -258 -1 -265
-20 -265 -11 0 -20 -7 -20 -15 0 -11 12 -15 50 -15 38 0 50 4 50 15 0 8 -7 15
-15 15 -13 0 -15 36 -15 265 0 229 2 265 15 265 8 0 15 5 15 10 0 6 -22 10
-50 10 -27 0 -50 -4 -50 -10z"/>
<path d="M4990 1530 c0 -251 2 -290 15 -290 12 0 15 19 15 114 l0 114 153 3
c149 4 155 5 196 32 107 71 105 229 -3 292 -41 24 -50 25 -209 25 l-167 0 0
-290z m314 259 c51 -14 92 -55 106 -108 9 -35 8 -48 -8 -85 -11 -23 -35 -54
-53 -67 -32 -22 -44 -24 -181 -27 l-148 -3 0 150 0 151 123 0 c67 0 140 -5
161 -11z"/>
<path d="M5520 1530 l0 -290 233 0 233 0 41 90 41 90 165 0 164 0 41 -90 c26
-56 47 -90 57 -90 8 0 15 2 15 5 0 2 -58 131 -130 287 -93 203 -134 284 -147
286 -15 2 -43 -52 -148 -283 -71 -157 -131 -281 -133 -275 -2 6 -75 10 -203
10 l-199 0 0 275 c0 238 -2 275 -15 275 -13 0 -15 -39 -15 -290z m794 72 l75
-162 -155 0 c-85 0 -154 1 -154 3 0 5 138 306 146 318 3 6 7 9 9 7 2 -2 37
-76 79 -166z"/>
<path d="M6416 1808 c4 -7 59 -82 121 -166 l113 -152 0 -125 c0 -104 2 -125
15 -125 13 0 15 21 15 126 l0 126 97 132 c53 72 108 146 121 164 24 31 24 32
4 32 -15 0 -50 -40 -127 -145 -59 -80 -111 -143 -116 -140 -4 3 -54 69 -111
145 -67 93 -108 140 -121 140 -12 0 -16 -4 -11 -12z"/>
<path d="M7240 1529 l0 -290 183 3 c174 3 184 4 216 27 46 33 75 100 66 152
-8 46 -55 106 -91 115 l-24 6 29 27 c16 15 35 46 42 69 11 38 10 48 -7 90 -12
28 -32 55 -53 69 -32 22 -44 23 -197 23 l-164 0 0 -291z m314 257 c100 -42
103 -171 6 -221 -21 -11 -64 -15 -160 -15 l-130 0 0 125 0 125 125 0 c84 0
137 -5 159 -14z m53 -279 c62 -33 84 -128 42 -181 -39 -50 -65 -56 -229 -56
l-150 0 0 131 0 131 153 -4 c121 -3 159 -7 184 -21z"/>
<path d="M8671 1778 c-10 -24 -69 -152 -130 -286 -61 -133 -111 -245 -111
-247 0 -3 7 -5 16 -5 9 0 30 33 56 90 l41 90 164 0 165 0 41 -90 c23 -50 47
-90 55 -90 7 0 12 7 10 15 -2 9 -59 139 -128 290 -137 300 -145 311 -179 233z
m114 -168 c41 -90 75 -165 75 -167 0 -1 -69 -3 -154 -3 l-154 0 76 169 c43 93
78 168 79 167 2 -1 37 -76 78 -166z"/>
<path d="M9050 1530 c0 -251 2 -290 15 -290 13 0 15 21 15 125 l0 125 119 0
120 0 83 -122 c60 -89 90 -124 107 -126 19 -3 11 13 -58 117 -45 66 -81 124
-81 128 0 4 18 16 40 26 121 56 130 220 15 284 -37 21 -53 23 -207 23 l-168 0
0 -290z m328 255 c52 -22 81 -52 93 -98 14 -53 -15 -115 -70 -145 -35 -20 -53
-22 -180 -22 l-141 0 0 140 0 140 130 0 c95 0 141 -4 168 -15z"/>
<path d="M9590 1531 l0 -291 123 0 c199 0 286 41 346 161 72 144 23 304 -118
387 -44 26 -54 27 -198 30 l-153 4 0 -291z m310 242 c59 -26 107 -75 136 -138
56 -119 7 -261 -114 -333 -43 -25 -57 -27 -174 -31 l-128 -3 0 267 0 267 118
-4 c89 -3 128 -9 162 -25z"/>
</g>
</svg>
